<mxfile host="app.diagrams.net" modified="2022-01-05T23:32:17.306Z" agent="5.0 (Windows NT 10.0; Win64; x64) AppleWebKit/537.36 (KHTML, like Gecko) Chrome/96.0.4664.110 Safari/537.36" etag="5PRSxz2ZMd-Ydkvb-Xw_" version="16.1.2" type="github">
  <diagram id="UymteN3uJPmxWQYztlvr" name="Page-1">
    <mxGraphModel dx="1209" dy="684" grid="1" gridSize="10" guides="1" tooltips="1" connect="1" arrows="1" fold="1" page="1" pageScale="1" pageWidth="850" pageHeight="1100" math="0" shadow="0">
      <root>
        <mxCell id="0" />
        <mxCell id="1" parent="0" />
        <mxCell id="pxhSSmq2vR4YPbRjKJ-k-43" style="rounded=0;orthogonalLoop=1;jettySize=auto;html=1;entryX=0;entryY=0.5;entryDx=0;entryDy=0;startArrow=none;startFill=0;endArrow=none;endFill=0;" edge="1" parent="1" target="pxhSSmq2vR4YPbRjKJ-k-39">
          <mxGeometry relative="1" as="geometry">
            <mxPoint x="440" y="150" as="sourcePoint" />
          </mxGeometry>
        </mxCell>
        <mxCell id="J_6dSlRU8AT6vWIgHPZq-2" value="movie" style="rounded=1;whiteSpace=wrap;html=1;fillColor=#C3ABD0;" parent="1" vertex="1">
          <mxGeometry x="340" y="110" width="100" height="40" as="geometry" />
        </mxCell>
        <mxCell id="J_6dSlRU8AT6vWIgHPZq-3" value="genre" style="rounded=1;whiteSpace=wrap;html=1;fillColor=#C3ABD0;" parent="1" vertex="1">
          <mxGeometry x="670" y="470" width="100" height="40" as="geometry" />
        </mxCell>
        <mxCell id="J_6dSlRU8AT6vWIgHPZq-5" value="production company" style="rounded=1;whiteSpace=wrap;html=1;fillColor=#C3ABD0;" parent="1" vertex="1">
          <mxGeometry x="510" y="470" width="100" height="40" as="geometry" />
        </mxCell>
        <mxCell id="J_6dSlRU8AT6vWIgHPZq-7" value="award(nomination)" style="rounded=1;whiteSpace=wrap;html=1;fillColor=#C3ABD0;" parent="1" vertex="1">
          <mxGeometry x="30" y="110" width="100" height="40" as="geometry" />
        </mxCell>
        <mxCell id="J_6dSlRU8AT6vWIgHPZq-9" value="person" style="rounded=1;whiteSpace=wrap;html=1;fillColor=#C3ABD0;" parent="1" vertex="1">
          <mxGeometry x="290" y="470" width="100" height="40" as="geometry" />
        </mxCell>
        <mxCell id="J_6dSlRU8AT6vWIgHPZq-11" value="&lt;font color=&quot;#ffffff&quot;&gt;nomination&lt;/font&gt;" style="rhombus;whiteSpace=wrap;html=1;fillColor=#647687;" parent="1" vertex="1">
          <mxGeometry x="185" y="95" width="70" height="70" as="geometry" />
        </mxCell>
        <mxCell id="J_6dSlRU8AT6vWIgHPZq-13" value="&lt;font color=&quot;#ffffff&quot;&gt;produced by&lt;/font&gt;" style="rhombus;whiteSpace=wrap;html=1;fillColor=#647687;" parent="1" vertex="1">
          <mxGeometry x="480" y="260" width="85" height="80" as="geometry" />
        </mxCell>
        <mxCell id="J_6dSlRU8AT6vWIgHPZq-14" value="&lt;font color=&quot;#ffffff&quot;&gt;type of&lt;/font&gt;" style="rhombus;whiteSpace=wrap;html=1;fillColor=#647687;" parent="1" vertex="1">
          <mxGeometry x="590" y="265" width="70" height="70" as="geometry" />
        </mxCell>
        <mxCell id="pxhSSmq2vR4YPbRjKJ-k-85" style="edgeStyle=none;rounded=0;orthogonalLoop=1;jettySize=auto;html=1;exitX=0;exitY=0;exitDx=0;exitDy=0;entryX=1;entryY=1;entryDx=0;entryDy=0;startArrow=none;startFill=0;endArrow=none;endFill=0;" edge="1" parent="1" source="J_6dSlRU8AT6vWIgHPZq-15" target="pxhSSmq2vR4YPbRjKJ-k-83">
          <mxGeometry relative="1" as="geometry" />
        </mxCell>
        <mxCell id="pxhSSmq2vR4YPbRjKJ-k-92" style="edgeStyle=none;rounded=0;orthogonalLoop=1;jettySize=auto;html=1;exitX=1;exitY=0.5;exitDx=0;exitDy=0;entryX=0;entryY=0.5;entryDx=0;entryDy=0;startArrow=none;startFill=0;endArrow=none;endFill=0;" edge="1" parent="1" source="J_6dSlRU8AT6vWIgHPZq-15" target="pxhSSmq2vR4YPbRjKJ-k-87">
          <mxGeometry relative="1" as="geometry" />
        </mxCell>
        <mxCell id="J_6dSlRU8AT6vWIgHPZq-15" value="&lt;font color=&quot;#ffffff&quot;&gt;worked in&lt;/font&gt;" style="rhombus;whiteSpace=wrap;html=1;fillColor=#647687;" parent="1" vertex="1">
          <mxGeometry x="300" y="310" width="80" height="80" as="geometry" />
        </mxCell>
        <mxCell id="pxhSSmq2vR4YPbRjKJ-k-1" value="" style="endArrow=none;html=1;rounded=0;exitX=0.643;exitY=0.992;exitDx=0;exitDy=0;entryX=0;entryY=0;entryDx=0;entryDy=0;exitPerimeter=0;" edge="1" parent="1" source="J_6dSlRU8AT6vWIgHPZq-2" target="J_6dSlRU8AT6vWIgHPZq-13">
          <mxGeometry width="50" height="50" relative="1" as="geometry">
            <mxPoint x="470" y="210" as="sourcePoint" />
            <mxPoint x="520" y="160" as="targetPoint" />
          </mxGeometry>
        </mxCell>
        <mxCell id="pxhSSmq2vR4YPbRjKJ-k-2" value="" style="endArrow=none;html=1;rounded=0;exitX=0.5;exitY=1;exitDx=0;exitDy=0;entryX=0.5;entryY=0;entryDx=0;entryDy=0;" edge="1" parent="1" source="J_6dSlRU8AT6vWIgHPZq-13" target="J_6dSlRU8AT6vWIgHPZq-5">
          <mxGeometry width="50" height="50" relative="1" as="geometry">
            <mxPoint x="600" y="300" as="sourcePoint" />
            <mxPoint x="650" y="250" as="targetPoint" />
            <Array as="points" />
          </mxGeometry>
        </mxCell>
        <mxCell id="pxhSSmq2vR4YPbRjKJ-k-3" value="" style="endArrow=none;html=1;rounded=0;exitX=0.93;exitY=1.058;exitDx=0;exitDy=0;entryX=0;entryY=0;entryDx=0;entryDy=0;exitPerimeter=0;" edge="1" parent="1" source="J_6dSlRU8AT6vWIgHPZq-2" target="J_6dSlRU8AT6vWIgHPZq-14">
          <mxGeometry width="50" height="50" relative="1" as="geometry">
            <mxPoint x="440" y="80" as="sourcePoint" />
            <mxPoint x="490" y="30" as="targetPoint" />
          </mxGeometry>
        </mxCell>
        <mxCell id="pxhSSmq2vR4YPbRjKJ-k-4" value="" style="endArrow=none;html=1;rounded=0;entryX=0.25;entryY=0;entryDx=0;entryDy=0;exitX=0.5;exitY=1;exitDx=0;exitDy=0;" edge="1" parent="1" source="J_6dSlRU8AT6vWIgHPZq-14" target="J_6dSlRU8AT6vWIgHPZq-3">
          <mxGeometry width="50" height="50" relative="1" as="geometry">
            <mxPoint x="610" y="80" as="sourcePoint" />
            <mxPoint x="660" y="30" as="targetPoint" />
            <Array as="points" />
          </mxGeometry>
        </mxCell>
        <mxCell id="pxhSSmq2vR4YPbRjKJ-k-6" value="" style="endArrow=none;html=1;rounded=0;exitX=0.5;exitY=0;exitDx=0;exitDy=0;entryX=0;entryY=1;entryDx=0;entryDy=0;" edge="1" parent="1" source="J_6dSlRU8AT6vWIgHPZq-15" target="J_6dSlRU8AT6vWIgHPZq-2">
          <mxGeometry width="50" height="50" relative="1" as="geometry">
            <mxPoint x="340" y="200" as="sourcePoint" />
            <mxPoint x="390" y="150" as="targetPoint" />
          </mxGeometry>
        </mxCell>
        <mxCell id="pxhSSmq2vR4YPbRjKJ-k-7" value="" style="endArrow=none;html=1;rounded=0;exitX=0.5;exitY=0;exitDx=0;exitDy=0;entryX=0.5;entryY=1;entryDx=0;entryDy=0;" edge="1" parent="1" source="J_6dSlRU8AT6vWIgHPZq-9" target="J_6dSlRU8AT6vWIgHPZq-15">
          <mxGeometry width="50" height="50" relative="1" as="geometry">
            <mxPoint x="350" y="310" as="sourcePoint" />
            <mxPoint x="400" y="260" as="targetPoint" />
          </mxGeometry>
        </mxCell>
        <mxCell id="pxhSSmq2vR4YPbRjKJ-k-8" value="" style="endArrow=classic;html=1;rounded=0;exitX=1;exitY=0.5;exitDx=0;exitDy=0;endFill=1;" edge="1" parent="1" source="J_6dSlRU8AT6vWIgHPZq-11">
          <mxGeometry width="50" height="50" relative="1" as="geometry">
            <mxPoint x="290" y="180" as="sourcePoint" />
            <mxPoint x="340" y="130" as="targetPoint" />
          </mxGeometry>
        </mxCell>
        <mxCell id="pxhSSmq2vR4YPbRjKJ-k-9" value="" style="endArrow=none;html=1;rounded=0;entryX=0;entryY=0.5;entryDx=0;entryDy=0;exitX=1;exitY=0.5;exitDx=0;exitDy=0;" edge="1" parent="1" source="J_6dSlRU8AT6vWIgHPZq-7" target="J_6dSlRU8AT6vWIgHPZq-11">
          <mxGeometry width="50" height="50" relative="1" as="geometry">
            <mxPoint x="170" y="270" as="sourcePoint" />
            <mxPoint x="220" y="220" as="targetPoint" />
          </mxGeometry>
        </mxCell>
        <mxCell id="pxhSSmq2vR4YPbRjKJ-k-12" value="&lt;font color=&quot;#ffffff&quot;&gt;In Category&lt;/font&gt;" style="rhombus;whiteSpace=wrap;html=1;fillColor=#647687;" vertex="1" parent="1">
          <mxGeometry x="110" y="205" width="80" height="60" as="geometry" />
        </mxCell>
        <mxCell id="pxhSSmq2vR4YPbRjKJ-k-14" value="Oscar Category&amp;nbsp;" style="rounded=1;whiteSpace=wrap;html=1;fillColor=#C3ABD0;" vertex="1" parent="1">
          <mxGeometry x="170" y="335" width="100" height="40" as="geometry" />
        </mxCell>
        <mxCell id="pxhSSmq2vR4YPbRjKJ-k-15" value="" style="endArrow=none;html=1;rounded=0;entryX=1;entryY=1;entryDx=0;entryDy=0;exitX=0.25;exitY=0;exitDx=0;exitDy=0;endFill=0;startArrow=classic;startFill=1;" edge="1" parent="1" source="pxhSSmq2vR4YPbRjKJ-k-14" target="pxhSSmq2vR4YPbRjKJ-k-12">
          <mxGeometry width="50" height="50" relative="1" as="geometry">
            <mxPoint x="130" y="520" as="sourcePoint" />
            <mxPoint x="180" y="470" as="targetPoint" />
          </mxGeometry>
        </mxCell>
        <mxCell id="pxhSSmq2vR4YPbRjKJ-k-16" value="" style="endArrow=none;html=1;rounded=0;entryX=0.5;entryY=1;entryDx=0;entryDy=0;exitX=0;exitY=0;exitDx=0;exitDy=0;" edge="1" parent="1" source="pxhSSmq2vR4YPbRjKJ-k-12" target="J_6dSlRU8AT6vWIgHPZq-7">
          <mxGeometry width="50" height="50" relative="1" as="geometry">
            <mxPoint x="90" y="370" as="sourcePoint" />
            <mxPoint x="140" y="320" as="targetPoint" />
          </mxGeometry>
        </mxCell>
        <mxCell id="pxhSSmq2vR4YPbRjKJ-k-17" value="is a" style="triangle;whiteSpace=wrap;html=1;direction=north;" vertex="1" parent="1">
          <mxGeometry x="55" y="250" width="50" height="40" as="geometry" />
        </mxCell>
        <mxCell id="pxhSSmq2vR4YPbRjKJ-k-19" value="person nomination" style="rounded=1;whiteSpace=wrap;html=1;fillColor=#C3ABD0;" vertex="1" parent="1">
          <mxGeometry x="30" y="470" width="100" height="40" as="geometry" />
        </mxCell>
        <mxCell id="pxhSSmq2vR4YPbRjKJ-k-20" value="" style="endArrow=none;html=1;rounded=0;exitX=1;exitY=0.5;exitDx=0;exitDy=0;" edge="1" parent="1" source="pxhSSmq2vR4YPbRjKJ-k-17">
          <mxGeometry width="50" height="50" relative="1" as="geometry">
            <mxPoint x="30" y="200" as="sourcePoint" />
            <mxPoint x="80" y="150" as="targetPoint" />
          </mxGeometry>
        </mxCell>
        <mxCell id="pxhSSmq2vR4YPbRjKJ-k-23" value="&lt;font color=&quot;#ffffff&quot;&gt;nomination&lt;/font&gt;" style="rhombus;whiteSpace=wrap;html=1;fillColor=#647687;" vertex="1" parent="1">
          <mxGeometry x="180" y="455" width="70" height="70" as="geometry" />
        </mxCell>
        <mxCell id="pxhSSmq2vR4YPbRjKJ-k-25" value="" style="endArrow=none;html=1;rounded=0;entryX=0;entryY=0.5;entryDx=0;entryDy=0;exitX=1;exitY=0.5;exitDx=0;exitDy=0;" edge="1" parent="1" source="pxhSSmq2vR4YPbRjKJ-k-19" target="pxhSSmq2vR4YPbRjKJ-k-23">
          <mxGeometry width="50" height="50" relative="1" as="geometry">
            <mxPoint x="125" y="489.5" as="sourcePoint" />
            <mxPoint x="180" y="489.5" as="targetPoint" />
          </mxGeometry>
        </mxCell>
        <mxCell id="pxhSSmq2vR4YPbRjKJ-k-26" value="" style="endArrow=classic;html=1;rounded=0;exitX=1;exitY=0.5;exitDx=0;exitDy=0;endFill=1;entryX=0;entryY=0.5;entryDx=0;entryDy=0;" edge="1" parent="1" source="pxhSSmq2vR4YPbRjKJ-k-23" target="J_6dSlRU8AT6vWIgHPZq-9">
          <mxGeometry width="50" height="50" relative="1" as="geometry">
            <mxPoint x="250" y="489.5" as="sourcePoint" />
            <mxPoint x="335" y="489.5" as="targetPoint" />
          </mxGeometry>
        </mxCell>
        <mxCell id="pxhSSmq2vR4YPbRjKJ-k-54" style="edgeStyle=none;rounded=0;orthogonalLoop=1;jettySize=auto;html=1;exitX=1;exitY=1;exitDx=0;exitDy=0;entryX=0.25;entryY=0;entryDx=0;entryDy=0;startArrow=none;startFill=0;endArrow=none;endFill=0;" edge="1" parent="1" source="pxhSSmq2vR4YPbRjKJ-k-27" target="J_6dSlRU8AT6vWIgHPZq-2">
          <mxGeometry relative="1" as="geometry" />
        </mxCell>
        <mxCell id="pxhSSmq2vR4YPbRjKJ-k-27" value="&lt;u&gt;id&lt;/u&gt;" style="ellipse;whiteSpace=wrap;html=1;fillColor=#00FF00;" vertex="1" parent="1">
          <mxGeometry x="240" y="30" width="40" height="40" as="geometry" />
        </mxCell>
        <mxCell id="pxhSSmq2vR4YPbRjKJ-k-53" style="edgeStyle=none;rounded=0;orthogonalLoop=1;jettySize=auto;html=1;exitX=1;exitY=1;exitDx=0;exitDy=0;startArrow=none;startFill=0;endArrow=none;endFill=0;" edge="1" parent="1" source="pxhSSmq2vR4YPbRjKJ-k-28" target="J_6dSlRU8AT6vWIgHPZq-2">
          <mxGeometry relative="1" as="geometry" />
        </mxCell>
        <mxCell id="pxhSSmq2vR4YPbRjKJ-k-28" value="title" style="ellipse;whiteSpace=wrap;html=1;fillColor=#00FF00;" vertex="1" parent="1">
          <mxGeometry x="290" y="30" width="50" height="40" as="geometry" />
        </mxCell>
        <mxCell id="pxhSSmq2vR4YPbRjKJ-k-52" style="edgeStyle=none;rounded=0;orthogonalLoop=1;jettySize=auto;html=1;exitX=0.5;exitY=1;exitDx=0;exitDy=0;startArrow=none;startFill=0;endArrow=none;endFill=0;" edge="1" parent="1" source="pxhSSmq2vR4YPbRjKJ-k-29">
          <mxGeometry relative="1" as="geometry">
            <mxPoint x="380" y="110" as="targetPoint" />
          </mxGeometry>
        </mxCell>
        <mxCell id="pxhSSmq2vR4YPbRjKJ-k-29" value="budget" style="ellipse;whiteSpace=wrap;html=1;fillColor=#00FF00;" vertex="1" parent="1">
          <mxGeometry x="350" y="30" width="50" height="40" as="geometry" />
        </mxCell>
        <mxCell id="pxhSSmq2vR4YPbRjKJ-k-51" style="edgeStyle=none;rounded=0;orthogonalLoop=1;jettySize=auto;html=1;exitX=0.5;exitY=1;exitDx=0;exitDy=0;entryX=0.5;entryY=0;entryDx=0;entryDy=0;startArrow=none;startFill=0;endArrow=none;endFill=0;" edge="1" parent="1" source="pxhSSmq2vR4YPbRjKJ-k-30" target="J_6dSlRU8AT6vWIgHPZq-2">
          <mxGeometry relative="1" as="geometry" />
        </mxCell>
        <mxCell id="pxhSSmq2vR4YPbRjKJ-k-30" value="overview" style="ellipse;whiteSpace=wrap;html=1;fillColor=#00FF00;" vertex="1" parent="1">
          <mxGeometry x="410" y="30" width="50" height="40" as="geometry" />
        </mxCell>
        <mxCell id="pxhSSmq2vR4YPbRjKJ-k-49" style="edgeStyle=none;rounded=0;orthogonalLoop=1;jettySize=auto;html=1;exitX=0;exitY=1;exitDx=0;exitDy=0;entryX=0.663;entryY=-0.008;entryDx=0;entryDy=0;entryPerimeter=0;startArrow=none;startFill=0;endArrow=none;endFill=0;" edge="1" parent="1" source="pxhSSmq2vR4YPbRjKJ-k-31" target="J_6dSlRU8AT6vWIgHPZq-2">
          <mxGeometry relative="1" as="geometry" />
        </mxCell>
        <mxCell id="pxhSSmq2vR4YPbRjKJ-k-31" value="original&lt;br&gt;language" style="ellipse;whiteSpace=wrap;html=1;fillColor=#00FF00;" vertex="1" parent="1">
          <mxGeometry x="530" y="30" width="60" height="40" as="geometry" />
        </mxCell>
        <mxCell id="pxhSSmq2vR4YPbRjKJ-k-32" style="edgeStyle=orthogonalEdgeStyle;rounded=0;orthogonalLoop=1;jettySize=auto;html=1;exitX=0.5;exitY=1;exitDx=0;exitDy=0;startArrow=classic;startFill=1;endArrow=none;endFill=0;" edge="1" parent="1" source="pxhSSmq2vR4YPbRjKJ-k-29" target="pxhSSmq2vR4YPbRjKJ-k-29">
          <mxGeometry relative="1" as="geometry" />
        </mxCell>
        <mxCell id="pxhSSmq2vR4YPbRjKJ-k-34" value="" style="endArrow=none;html=1;rounded=0;exitX=0.5;exitY=0;exitDx=0;exitDy=0;entryX=0;entryY=0.5;entryDx=0;entryDy=0;" edge="1" parent="1" source="pxhSSmq2vR4YPbRjKJ-k-19" target="pxhSSmq2vR4YPbRjKJ-k-17">
          <mxGeometry width="50" height="50" relative="1" as="geometry">
            <mxPoint x="79.5" y="470" as="sourcePoint" />
            <mxPoint x="79.5" y="370" as="targetPoint" />
          </mxGeometry>
        </mxCell>
        <mxCell id="pxhSSmq2vR4YPbRjKJ-k-46" style="edgeStyle=none;rounded=0;orthogonalLoop=1;jettySize=auto;html=1;exitX=0;exitY=0.5;exitDx=0;exitDy=0;startArrow=none;startFill=0;endArrow=none;endFill=0;" edge="1" parent="1" source="pxhSSmq2vR4YPbRjKJ-k-35">
          <mxGeometry relative="1" as="geometry">
            <mxPoint x="440" y="120" as="targetPoint" />
          </mxGeometry>
        </mxCell>
        <mxCell id="pxhSSmq2vR4YPbRjKJ-k-35" value="revenue" style="ellipse;whiteSpace=wrap;html=1;" vertex="1" parent="1">
          <mxGeometry x="680" y="90" width="50" height="40" as="geometry" />
        </mxCell>
        <mxCell id="pxhSSmq2vR4YPbRjKJ-k-47" style="edgeStyle=none;rounded=0;orthogonalLoop=1;jettySize=auto;html=1;exitX=0;exitY=1;exitDx=0;exitDy=0;entryX=1;entryY=0;entryDx=0;entryDy=0;startArrow=none;startFill=0;endArrow=none;endFill=0;" edge="1" parent="1" source="pxhSSmq2vR4YPbRjKJ-k-36" target="J_6dSlRU8AT6vWIgHPZq-2">
          <mxGeometry relative="1" as="geometry" />
        </mxCell>
        <mxCell id="pxhSSmq2vR4YPbRjKJ-k-36" value="release&lt;br&gt;date" style="ellipse;whiteSpace=wrap;html=1;" vertex="1" parent="1">
          <mxGeometry x="660" y="40" width="50" height="40" as="geometry" />
        </mxCell>
        <mxCell id="pxhSSmq2vR4YPbRjKJ-k-48" style="edgeStyle=none;rounded=0;orthogonalLoop=1;jettySize=auto;html=1;exitX=0;exitY=1;exitDx=0;exitDy=0;entryX=0.843;entryY=-0.008;entryDx=0;entryDy=0;entryPerimeter=0;startArrow=none;startFill=0;endArrow=none;endFill=0;" edge="1" parent="1" source="pxhSSmq2vR4YPbRjKJ-k-37" target="J_6dSlRU8AT6vWIgHPZq-2">
          <mxGeometry relative="1" as="geometry" />
        </mxCell>
        <mxCell id="pxhSSmq2vR4YPbRjKJ-k-37" value="popularity" style="ellipse;whiteSpace=wrap;html=1;fillColor=#00FF00;" vertex="1" parent="1">
          <mxGeometry x="600" y="30" width="55" height="40" as="geometry" />
        </mxCell>
        <mxCell id="pxhSSmq2vR4YPbRjKJ-k-50" style="edgeStyle=none;rounded=0;orthogonalLoop=1;jettySize=auto;html=1;exitX=0;exitY=1;exitDx=0;exitDy=0;entryX=0.577;entryY=-0.025;entryDx=0;entryDy=0;entryPerimeter=0;startArrow=none;startFill=0;endArrow=none;endFill=0;" edge="1" parent="1" source="pxhSSmq2vR4YPbRjKJ-k-38" target="J_6dSlRU8AT6vWIgHPZq-2">
          <mxGeometry relative="1" as="geometry" />
        </mxCell>
        <mxCell id="pxhSSmq2vR4YPbRjKJ-k-38" value="budget" style="ellipse;whiteSpace=wrap;html=1;fillColor=#00FF00;" vertex="1" parent="1">
          <mxGeometry x="470" y="30" width="50" height="40" as="geometry" />
        </mxCell>
        <mxCell id="pxhSSmq2vR4YPbRjKJ-k-39" value="db_id" style="ellipse;whiteSpace=wrap;html=1;" vertex="1" parent="1">
          <mxGeometry x="680" y="240" width="50" height="40" as="geometry" />
        </mxCell>
        <mxCell id="pxhSSmq2vR4YPbRjKJ-k-44" style="edgeStyle=none;rounded=0;orthogonalLoop=1;jettySize=auto;html=1;exitX=0;exitY=0.5;exitDx=0;exitDy=0;startArrow=none;startFill=0;endArrow=none;endFill=0;" edge="1" parent="1" source="pxhSSmq2vR4YPbRjKJ-k-40">
          <mxGeometry relative="1" as="geometry">
            <mxPoint x="440" y="140" as="targetPoint" />
          </mxGeometry>
        </mxCell>
        <mxCell id="pxhSSmq2vR4YPbRjKJ-k-40" value="vote&lt;br&gt;count" style="ellipse;whiteSpace=wrap;html=1;" vertex="1" parent="1">
          <mxGeometry x="680" y="190" width="50" height="40" as="geometry" />
        </mxCell>
        <mxCell id="pxhSSmq2vR4YPbRjKJ-k-45" style="edgeStyle=none;rounded=0;orthogonalLoop=1;jettySize=auto;html=1;exitX=0;exitY=0.5;exitDx=0;exitDy=0;startArrow=none;startFill=0;endArrow=none;endFill=0;" edge="1" parent="1" source="pxhSSmq2vR4YPbRjKJ-k-41">
          <mxGeometry relative="1" as="geometry">
            <mxPoint x="440" y="130" as="targetPoint" />
          </mxGeometry>
        </mxCell>
        <mxCell id="pxhSSmq2vR4YPbRjKJ-k-41" value="vote&lt;br&gt;average" style="ellipse;whiteSpace=wrap;html=1;" vertex="1" parent="1">
          <mxGeometry x="680" y="140" width="50" height="40" as="geometry" />
        </mxCell>
        <mxCell id="pxhSSmq2vR4YPbRjKJ-k-63" style="edgeStyle=none;rounded=0;orthogonalLoop=1;jettySize=auto;html=1;exitX=0.5;exitY=0;exitDx=0;exitDy=0;entryX=0.75;entryY=1;entryDx=0;entryDy=0;startArrow=none;startFill=0;endArrow=none;endFill=0;" edge="1" parent="1" source="pxhSSmq2vR4YPbRjKJ-k-56" target="J_6dSlRU8AT6vWIgHPZq-3">
          <mxGeometry relative="1" as="geometry" />
        </mxCell>
        <mxCell id="pxhSSmq2vR4YPbRjKJ-k-56" value="name" style="ellipse;whiteSpace=wrap;html=1;" vertex="1" parent="1">
          <mxGeometry x="720" y="550" width="50" height="40" as="geometry" />
        </mxCell>
        <mxCell id="pxhSSmq2vR4YPbRjKJ-k-62" style="edgeStyle=none;rounded=0;orthogonalLoop=1;jettySize=auto;html=1;exitX=0.5;exitY=0;exitDx=0;exitDy=0;entryX=0.25;entryY=1;entryDx=0;entryDy=0;startArrow=none;startFill=0;endArrow=none;endFill=0;" edge="1" parent="1" source="pxhSSmq2vR4YPbRjKJ-k-57" target="J_6dSlRU8AT6vWIgHPZq-3">
          <mxGeometry relative="1" as="geometry" />
        </mxCell>
        <mxCell id="pxhSSmq2vR4YPbRjKJ-k-57" value="&lt;u&gt;id&lt;/u&gt;" style="ellipse;whiteSpace=wrap;html=1;" vertex="1" parent="1">
          <mxGeometry x="660" y="550" width="30" height="40" as="geometry" />
        </mxCell>
        <mxCell id="pxhSSmq2vR4YPbRjKJ-k-61" style="edgeStyle=none;rounded=0;orthogonalLoop=1;jettySize=auto;html=1;exitX=0.5;exitY=0;exitDx=0;exitDy=0;entryX=0.327;entryY=1.042;entryDx=0;entryDy=0;entryPerimeter=0;startArrow=none;startFill=0;endArrow=none;endFill=0;" edge="1" parent="1" source="pxhSSmq2vR4YPbRjKJ-k-58" target="J_6dSlRU8AT6vWIgHPZq-5">
          <mxGeometry relative="1" as="geometry" />
        </mxCell>
        <mxCell id="pxhSSmq2vR4YPbRjKJ-k-58" value="&lt;u&gt;id&lt;/u&gt;" style="ellipse;whiteSpace=wrap;html=1;" vertex="1" parent="1">
          <mxGeometry x="520" y="550" width="30" height="40" as="geometry" />
        </mxCell>
        <mxCell id="pxhSSmq2vR4YPbRjKJ-k-60" style="edgeStyle=none;rounded=0;orthogonalLoop=1;jettySize=auto;html=1;exitX=0.5;exitY=0;exitDx=0;exitDy=0;entryX=0.75;entryY=1;entryDx=0;entryDy=0;startArrow=none;startFill=0;endArrow=none;endFill=0;" edge="1" parent="1" source="pxhSSmq2vR4YPbRjKJ-k-59" target="J_6dSlRU8AT6vWIgHPZq-5">
          <mxGeometry relative="1" as="geometry" />
        </mxCell>
        <mxCell id="pxhSSmq2vR4YPbRjKJ-k-59" value="name" style="ellipse;whiteSpace=wrap;html=1;" vertex="1" parent="1">
          <mxGeometry x="560" y="550" width="50" height="40" as="geometry" />
        </mxCell>
        <mxCell id="pxhSSmq2vR4YPbRjKJ-k-71" style="edgeStyle=none;rounded=0;orthogonalLoop=1;jettySize=auto;html=1;exitX=0.5;exitY=0;exitDx=0;exitDy=0;entryX=0.25;entryY=1;entryDx=0;entryDy=0;startArrow=none;startFill=0;endArrow=none;endFill=0;" edge="1" parent="1" source="pxhSSmq2vR4YPbRjKJ-k-64" target="J_6dSlRU8AT6vWIgHPZq-9">
          <mxGeometry relative="1" as="geometry" />
        </mxCell>
        <mxCell id="pxhSSmq2vR4YPbRjKJ-k-64" value="&lt;u&gt;id&lt;/u&gt;" style="ellipse;whiteSpace=wrap;html=1;fillColor=#00FF00;" vertex="1" parent="1">
          <mxGeometry x="285" y="550" width="40" height="40" as="geometry" />
        </mxCell>
        <mxCell id="pxhSSmq2vR4YPbRjKJ-k-70" style="edgeStyle=none;rounded=0;orthogonalLoop=1;jettySize=auto;html=1;exitX=0.5;exitY=0;exitDx=0;exitDy=0;entryX=0.657;entryY=1.042;entryDx=0;entryDy=0;entryPerimeter=0;startArrow=none;startFill=0;endArrow=none;endFill=0;" edge="1" parent="1" source="pxhSSmq2vR4YPbRjKJ-k-65" target="J_6dSlRU8AT6vWIgHPZq-9">
          <mxGeometry relative="1" as="geometry" />
        </mxCell>
        <mxCell id="pxhSSmq2vR4YPbRjKJ-k-65" value="name" style="ellipse;whiteSpace=wrap;html=1;" vertex="1" parent="1">
          <mxGeometry x="340" y="550" width="50" height="40" as="geometry" />
        </mxCell>
        <mxCell id="pxhSSmq2vR4YPbRjKJ-k-69" style="edgeStyle=none;rounded=0;orthogonalLoop=1;jettySize=auto;html=1;exitX=0.5;exitY=1;exitDx=0;exitDy=0;startArrow=none;startFill=0;endArrow=none;endFill=0;" edge="1" parent="1" source="pxhSSmq2vR4YPbRjKJ-k-66">
          <mxGeometry relative="1" as="geometry">
            <mxPoint x="360" y="470" as="targetPoint" />
          </mxGeometry>
        </mxCell>
        <mxCell id="pxhSSmq2vR4YPbRjKJ-k-66" value="db_id" style="ellipse;whiteSpace=wrap;html=1;" vertex="1" parent="1">
          <mxGeometry x="350" y="415" width="50" height="40" as="geometry" />
        </mxCell>
        <mxCell id="pxhSSmq2vR4YPbRjKJ-k-68" style="edgeStyle=none;rounded=0;orthogonalLoop=1;jettySize=auto;html=1;exitX=0.5;exitY=1;exitDx=0;exitDy=0;startArrow=none;startFill=0;endArrow=none;endFill=0;" edge="1" parent="1" source="pxhSSmq2vR4YPbRjKJ-k-67" target="J_6dSlRU8AT6vWIgHPZq-9">
          <mxGeometry relative="1" as="geometry" />
        </mxCell>
        <mxCell id="pxhSSmq2vR4YPbRjKJ-k-67" value="gender" style="ellipse;whiteSpace=wrap;html=1;" vertex="1" parent="1">
          <mxGeometry x="280" y="415" width="50" height="40" as="geometry" />
        </mxCell>
        <mxCell id="pxhSSmq2vR4YPbRjKJ-k-78" style="edgeStyle=none;rounded=0;orthogonalLoop=1;jettySize=auto;html=1;exitX=0.5;exitY=1;exitDx=0;exitDy=0;entryX=0.25;entryY=0;entryDx=0;entryDy=0;startArrow=none;startFill=0;endArrow=none;endFill=0;" edge="1" parent="1" source="pxhSSmq2vR4YPbRjKJ-k-72" target="J_6dSlRU8AT6vWIgHPZq-7">
          <mxGeometry relative="1" as="geometry" />
        </mxCell>
        <mxCell id="pxhSSmq2vR4YPbRjKJ-k-72" value="&lt;u&gt;id&lt;/u&gt;" style="ellipse;whiteSpace=wrap;html=1;" vertex="1" parent="1">
          <mxGeometry x="10" y="30" width="40" height="40" as="geometry" />
        </mxCell>
        <mxCell id="pxhSSmq2vR4YPbRjKJ-k-77" style="edgeStyle=none;rounded=0;orthogonalLoop=1;jettySize=auto;html=1;exitX=0.5;exitY=1;exitDx=0;exitDy=0;entryX=0.5;entryY=0;entryDx=0;entryDy=0;startArrow=none;startFill=0;endArrow=none;endFill=0;" edge="1" parent="1" source="pxhSSmq2vR4YPbRjKJ-k-73" target="J_6dSlRU8AT6vWIgHPZq-7">
          <mxGeometry relative="1" as="geometry" />
        </mxCell>
        <mxCell id="pxhSSmq2vR4YPbRjKJ-k-73" value="year" style="ellipse;whiteSpace=wrap;html=1;" vertex="1" parent="1">
          <mxGeometry x="60" y="30" width="40" height="40" as="geometry" />
        </mxCell>
        <mxCell id="pxhSSmq2vR4YPbRjKJ-k-76" style="edgeStyle=none;rounded=0;orthogonalLoop=1;jettySize=auto;html=1;exitX=0.5;exitY=1;exitDx=0;exitDy=0;entryX=0.75;entryY=0;entryDx=0;entryDy=0;startArrow=none;startFill=0;endArrow=none;endFill=0;" edge="1" parent="1" source="pxhSSmq2vR4YPbRjKJ-k-74" target="J_6dSlRU8AT6vWIgHPZq-7">
          <mxGeometry relative="1" as="geometry" />
        </mxCell>
        <mxCell id="pxhSSmq2vR4YPbRjKJ-k-74" value="has&lt;br&gt;won" style="ellipse;whiteSpace=wrap;html=1;" vertex="1" parent="1">
          <mxGeometry x="110" y="30" width="40" height="40" as="geometry" />
        </mxCell>
        <mxCell id="pxhSSmq2vR4YPbRjKJ-k-79" style="edgeStyle=none;rounded=0;orthogonalLoop=1;jettySize=auto;html=1;exitX=0.5;exitY=0;exitDx=0;exitDy=0;entryX=0;entryY=1;entryDx=0;entryDy=0;startArrow=none;startFill=0;endArrow=none;endFill=0;" edge="1" parent="1" source="pxhSSmq2vR4YPbRjKJ-k-80" target="pxhSSmq2vR4YPbRjKJ-k-14">
          <mxGeometry relative="1" as="geometry">
            <mxPoint x="197.5" y="375" as="targetPoint" />
          </mxGeometry>
        </mxCell>
        <mxCell id="pxhSSmq2vR4YPbRjKJ-k-80" value="&lt;u&gt;id&lt;/u&gt;" style="ellipse;whiteSpace=wrap;html=1;" vertex="1" parent="1">
          <mxGeometry x="140" y="390" width="40" height="40" as="geometry" />
        </mxCell>
        <mxCell id="pxhSSmq2vR4YPbRjKJ-k-81" style="edgeStyle=none;rounded=0;orthogonalLoop=1;jettySize=auto;html=1;exitX=0.5;exitY=0;exitDx=0;exitDy=0;entryX=0.657;entryY=1.042;entryDx=0;entryDy=0;entryPerimeter=0;startArrow=none;startFill=0;endArrow=none;endFill=0;" edge="1" parent="1" source="pxhSSmq2vR4YPbRjKJ-k-82">
          <mxGeometry relative="1" as="geometry">
            <mxPoint x="238.20000000000005" y="376.68000000000006" as="targetPoint" />
          </mxGeometry>
        </mxCell>
        <mxCell id="pxhSSmq2vR4YPbRjKJ-k-82" value="name" style="ellipse;whiteSpace=wrap;html=1;" vertex="1" parent="1">
          <mxGeometry x="205" y="390" width="50" height="40" as="geometry" />
        </mxCell>
        <mxCell id="pxhSSmq2vR4YPbRjKJ-k-83" value="&lt;u&gt;id&lt;/u&gt;" style="ellipse;whiteSpace=wrap;html=1;" vertex="1" parent="1">
          <mxGeometry x="280" y="270" width="40" height="40" as="geometry" />
        </mxCell>
        <mxCell id="pxhSSmq2vR4YPbRjKJ-k-87" value="job" style="rounded=1;whiteSpace=wrap;html=1;fillColor=#C3ABD0;" vertex="1" parent="1">
          <mxGeometry x="410" y="330" width="70" height="40" as="geometry" />
        </mxCell>
        <mxCell id="pxhSSmq2vR4YPbRjKJ-k-88" style="edgeStyle=none;rounded=0;orthogonalLoop=1;jettySize=auto;html=1;exitX=0.5;exitY=0;exitDx=0;exitDy=0;entryX=0.75;entryY=1;entryDx=0;entryDy=0;startArrow=none;startFill=0;endArrow=none;endFill=0;" edge="1" parent="1" source="pxhSSmq2vR4YPbRjKJ-k-89" target="pxhSSmq2vR4YPbRjKJ-k-87">
          <mxGeometry relative="1" as="geometry" />
        </mxCell>
        <mxCell id="pxhSSmq2vR4YPbRjKJ-k-89" value="name" style="ellipse;whiteSpace=wrap;html=1;" vertex="1" parent="1">
          <mxGeometry x="460" y="390" width="50" height="40" as="geometry" />
        </mxCell>
        <mxCell id="pxhSSmq2vR4YPbRjKJ-k-90" style="edgeStyle=none;rounded=0;orthogonalLoop=1;jettySize=auto;html=1;exitX=0.5;exitY=0;exitDx=0;exitDy=0;entryX=0.25;entryY=1;entryDx=0;entryDy=0;startArrow=none;startFill=0;endArrow=none;endFill=0;" edge="1" parent="1" source="pxhSSmq2vR4YPbRjKJ-k-91" target="pxhSSmq2vR4YPbRjKJ-k-87">
          <mxGeometry relative="1" as="geometry" />
        </mxCell>
        <mxCell id="pxhSSmq2vR4YPbRjKJ-k-91" value="&lt;u&gt;id&lt;/u&gt;" style="ellipse;whiteSpace=wrap;html=1;" vertex="1" parent="1">
          <mxGeometry x="420" y="390" width="30" height="40" as="geometry" />
        </mxCell>
        <mxCell id="pxhSSmq2vR4YPbRjKJ-k-94" value="&lt;u&gt;id&lt;/u&gt;" style="ellipse;whiteSpace=wrap;html=1;fillColor=#00FF00;" vertex="1" parent="1">
          <mxGeometry x="285" y="550" width="40" height="40" as="geometry" />
        </mxCell>
        <mxCell id="pxhSSmq2vR4YPbRjKJ-k-95" value="name" style="ellipse;whiteSpace=wrap;html=1;fillColor=#00FF00;" vertex="1" parent="1">
          <mxGeometry x="340" y="550" width="50" height="40" as="geometry" />
        </mxCell>
        <mxCell id="pxhSSmq2vR4YPbRjKJ-k-96" value="&lt;u&gt;id&lt;/u&gt;" style="ellipse;whiteSpace=wrap;html=1;fillColor=#00FF00;" vertex="1" parent="1">
          <mxGeometry x="520" y="550" width="30" height="40" as="geometry" />
        </mxCell>
        <mxCell id="pxhSSmq2vR4YPbRjKJ-k-97" value="name" style="ellipse;whiteSpace=wrap;html=1;fillColor=#00FF00;" vertex="1" parent="1">
          <mxGeometry x="560" y="550" width="50" height="40" as="geometry" />
        </mxCell>
        <mxCell id="pxhSSmq2vR4YPbRjKJ-k-98" value="&lt;u&gt;id&lt;/u&gt;" style="ellipse;whiteSpace=wrap;html=1;fillColor=#00FF00;" vertex="1" parent="1">
          <mxGeometry x="660" y="550" width="30" height="40" as="geometry" />
        </mxCell>
        <mxCell id="pxhSSmq2vR4YPbRjKJ-k-99" value="name" style="ellipse;whiteSpace=wrap;html=1;fillColor=#00FF00;" vertex="1" parent="1">
          <mxGeometry x="720" y="550" width="50" height="40" as="geometry" />
        </mxCell>
        <mxCell id="pxhSSmq2vR4YPbRjKJ-k-100" value="name" style="ellipse;whiteSpace=wrap;html=1;fillColor=#00FF00;" vertex="1" parent="1">
          <mxGeometry x="460" y="390" width="50" height="40" as="geometry" />
        </mxCell>
        <mxCell id="pxhSSmq2vR4YPbRjKJ-k-101" value="&lt;u&gt;id&lt;/u&gt;" style="ellipse;whiteSpace=wrap;html=1;fillColor=#00FF00;" vertex="1" parent="1">
          <mxGeometry x="420" y="390" width="30" height="40" as="geometry" />
        </mxCell>
        <mxCell id="pxhSSmq2vR4YPbRjKJ-k-102" value="db_id" style="ellipse;whiteSpace=wrap;html=1;fillColor=#00FF00;" vertex="1" parent="1">
          <mxGeometry x="350" y="415" width="50" height="40" as="geometry" />
        </mxCell>
        <mxCell id="pxhSSmq2vR4YPbRjKJ-k-103" value="gender" style="ellipse;whiteSpace=wrap;html=1;fillColor=#00FF00;" vertex="1" parent="1">
          <mxGeometry x="280" y="415" width="50" height="40" as="geometry" />
        </mxCell>
        <mxCell id="pxhSSmq2vR4YPbRjKJ-k-104" value="&lt;u&gt;id&lt;/u&gt;" style="ellipse;whiteSpace=wrap;html=1;fillColor=#00FF00;" vertex="1" parent="1">
          <mxGeometry x="280" y="270" width="40" height="40" as="geometry" />
        </mxCell>
        <mxCell id="pxhSSmq2vR4YPbRjKJ-k-105" value="name" style="ellipse;whiteSpace=wrap;html=1;fillColor=#00FF00;" vertex="1" parent="1">
          <mxGeometry x="205" y="390" width="50" height="40" as="geometry" />
        </mxCell>
        <mxCell id="pxhSSmq2vR4YPbRjKJ-k-106" value="&lt;u&gt;id&lt;/u&gt;" style="ellipse;whiteSpace=wrap;html=1;fillColor=#00FF00;" vertex="1" parent="1">
          <mxGeometry x="140" y="390" width="40" height="40" as="geometry" />
        </mxCell>
        <mxCell id="pxhSSmq2vR4YPbRjKJ-k-107" value="is a" style="triangle;whiteSpace=wrap;html=1;direction=north;fillColor=#00FF00;" vertex="1" parent="1">
          <mxGeometry x="55" y="250" width="50" height="40" as="geometry" />
        </mxCell>
        <mxCell id="pxhSSmq2vR4YPbRjKJ-k-108" value="has&lt;br&gt;won" style="ellipse;whiteSpace=wrap;html=1;fillColor=#00FF00;" vertex="1" parent="1">
          <mxGeometry x="110" y="30" width="40" height="40" as="geometry" />
        </mxCell>
        <mxCell id="pxhSSmq2vR4YPbRjKJ-k-109" value="year" style="ellipse;whiteSpace=wrap;html=1;fillColor=#00FF00;" vertex="1" parent="1">
          <mxGeometry x="60" y="30" width="40" height="40" as="geometry" />
        </mxCell>
        <mxCell id="pxhSSmq2vR4YPbRjKJ-k-110" value="&lt;u&gt;id&lt;/u&gt;" style="ellipse;whiteSpace=wrap;html=1;fillColor=#00FF00;" vertex="1" parent="1">
          <mxGeometry x="10" y="30" width="40" height="40" as="geometry" />
        </mxCell>
        <mxCell id="pxhSSmq2vR4YPbRjKJ-k-111" value="db_id" style="ellipse;whiteSpace=wrap;html=1;fillColor=#00FF00;" vertex="1" parent="1">
          <mxGeometry x="680" y="240" width="50" height="40" as="geometry" />
        </mxCell>
        <mxCell id="pxhSSmq2vR4YPbRjKJ-k-112" value="vote&lt;br&gt;count" style="ellipse;whiteSpace=wrap;html=1;fillColor=#00FF00;" vertex="1" parent="1">
          <mxGeometry x="680" y="190" width="50" height="40" as="geometry" />
        </mxCell>
        <mxCell id="pxhSSmq2vR4YPbRjKJ-k-113" value="vote&lt;br&gt;average" style="ellipse;whiteSpace=wrap;html=1;fillColor=#00FF00;" vertex="1" parent="1">
          <mxGeometry x="680" y="140" width="50" height="40" as="geometry" />
        </mxCell>
        <mxCell id="pxhSSmq2vR4YPbRjKJ-k-114" value="revenue" style="ellipse;whiteSpace=wrap;html=1;fillColor=#00FF00;" vertex="1" parent="1">
          <mxGeometry x="680" y="90" width="50" height="40" as="geometry" />
        </mxCell>
        <mxCell id="pxhSSmq2vR4YPbRjKJ-k-115" value="release&lt;br&gt;date" style="ellipse;whiteSpace=wrap;html=1;fillColor=#00FF00;" vertex="1" parent="1">
          <mxGeometry x="660" y="40" width="50" height="40" as="geometry" />
        </mxCell>
      </root>
    </mxGraphModel>
  </diagram>
</mxfile>
